STARTFONT 2.1
COMMENT
COMMENT Converted from OpenType font "manrope-medium.otf" by "otf2bdf 3.0".
COMMENT
FONT -FreeType-Manrope Medium-Medium-R-Normal--36-260-100-100-P-167-ISO10646-1
SIZE 26 100 100
FONTBOUNDINGBOX 35 45 -1 -9
STARTPROPERTIES 19
FOUNDRY "FreeType"
FAMILY_NAME "Manrope Medium"
WEIGHT_NAME "Medium"
SLANT "R"
SETWIDTH_NAME "Normal"
ADD_STYLE_NAME ""
PIXEL_SIZE 36
POINT_SIZE 260
RESOLUTION_X 100
RESOLUTION_Y 100
SPACING "P"
AVERAGE_WIDTH 167
CHARSET_REGISTRY "ISO10646"
CHARSET_ENCODING "1"
FONT_ASCENT 38
FONT_DESCENT 10
COPYRIGHT "Copyright 2019-2021 The Manrope Project Authors (https://github.com/sharanda/manrope)"
_OTF_FONTFILE "manrope-medium.otf"
_OTF_PSNAME "Manrope-Medium"
ENDPROPERTIES
CHARS 191
STARTCHAR 0020
ENCODING 32
SWIDTH 193 0
DWIDTH 7 0
BBX 0 0 0 0
BITMAP
ENDCHAR
STARTCHAR 0021
ENCODING 33
SWIDTH 332 0
DWIDTH 12 0
BBX 4 26 4 0
BITMAP
F0
F0
F0
F0
F0
F0
F0
F0
F0
F0
F0
F0
F0
F0
F0
F0
F0
F0
F0
F0
00
00
00
F0
F0
F0
ENDCHAR
STARTCHAR 0022
ENCODING 34
SWIDTH 415 0
DWIDTH 15 0
BBX 9 7 2 19
BITMAP
E380
E380
E380
E380
E380
E380
E380
ENDCHAR
STARTCHAR 0023
ENCODING 35
SWIDTH 913 0
DWIDTH 33 0
BBX 29 26 2 0
BITMAP
000E0700
000E0F00
001E0E00
001C0E00
001C0E00
001C1E00
003C1C00
1FFFFFF8
1FFFFFF8
1FFFFFF8
00703800
00703800
00707800
00F07000
00E07000
7FFFFFE0
7FFFFFE0
FFFFFFC0
01C0E000
01C0E000
01C1C000
03C1C000
0381C000
0381C000
03838000
07838000
ENDCHAR
STARTCHAR 0024
ENCODING 36
SWIDTH 609 0
DWIDTH 22 0
BBX 19 32 1 -3
BITMAP
00F000
00F000
00F000
03FC00
0FFF00
1FFF80
3E07C0
3803C0
7801E0
7000E0
7800C0
780000
3C0000
3F8000
1FF000
07FE00
00FF80
001FC0
0003E0
0000E0
0000E0
F000E0
F000E0
7800E0
7C01E0
3E07C0
1FFF80
0FFF00
03FC00
00F000
00F000
00F000
ENDCHAR
STARTCHAR 0025
ENCODING 37
SWIDTH 913 0
DWIDTH 33 0
BBX 28 26 2 0
BITMAP
0F800040
3FE000E0
7FF001E0
707803C0
E0380F80
E0381F00
E0383E00
F0387C00
7878F800
7FF1F000
3FE3E000
0F87C000
000F8000
001F0F00
003E3FC0
007C7FE0
00F8F0F0
01F0E070
03E1C070
07C1C070
0F81C070
1F00E070
3E00F0F0
7C007FE0
38003FC0
10001F00
ENDCHAR
STARTCHAR 0026
ENCODING 38
SWIDTH 664 0
DWIDTH 24 0
BBX 21 26 2 0
BITMAP
03F000
0FFC00
1FFE00
3E1F00
380700
780000
700000
780000
780000
380000
3C0000
1F0000
1F8000
3FC1C0
79E1C0
F0F1C0
E079C0
E03DC0
E01FC0
E00FC0
F003C0
F003E0
7C0FF0
3FFF78
1FFE38
07F010
ENDCHAR
STARTCHAR 0027
ENCODING 39
SWIDTH 221 0
DWIDTH 8 0
BBX 3 7 2 19
BITMAP
E0
E0
E0
E0
E0
E0
E0
ENDCHAR
STARTCHAR 0028
ENCODING 40
SWIDTH 443 0
DWIDTH 16 0
BBX 9 37 5 -7
BITMAP
0300
0380
0780
0F00
0E00
1E00
1C00
3800
3800
7800
7000
7000
7000
E000
E000
E000
E000
E000
E000
E000
E000
E000
E000
E000
7000
7000
7000
7800
3800
3800
1C00
1E00
0E00
0F00
0780
0380
0200
ENDCHAR
STARTCHAR 0029
ENCODING 41
SWIDTH 443 0
DWIDTH 16 0
BBX 9 37 2 -7
BITMAP
4000
E000
F000
7000
3800
3C00
1C00
1C00
0E00
0E00
0F00
0700
0700
0700
0700
0700
0380
0380
0380
0380
0380
0700
0700
0700
0700
0700
0F00
0E00
0E00
1C00
1C00
3C00
7800
7000
F000
E000
4000
ENDCHAR
STARTCHAR 002A
ENCODING 42
SWIDTH 443 0
DWIDTH 16 0
BBX 13 12 1 14
BITMAP
0700
0700
0700
4710
FFF8
FFF8
1FC0
0F80
1FC0
3DE0
38E0
10C0
ENDCHAR
STARTCHAR 002B
ENCODING 43
SWIDTH 581 0
DWIDTH 21 0
BBX 17 17 2 5
BITMAP
01C000
01C000
01C000
01C000
01C000
01C000
01C000
FFFF80
FFFF80
FFFF80
01C000
01C000
01C000
01C000
01C000
01C000
01C000
ENDCHAR
STARTCHAR 002C
ENCODING 44
SWIDTH 276 0
DWIDTH 10 0
BBX 4 8 2 -4
BITMAP
F0
F0
F0
F0
30
30
E0
C0
ENDCHAR
STARTCHAR 002D
ENCODING 45
SWIDTH 415 0
DWIDTH 15 0
BBX 11 3 2 10
BITMAP
FFE0
FFE0
FFE0
ENDCHAR
STARTCHAR 002E
ENCODING 46
SWIDTH 276 0
DWIDTH 10 0
BBX 4 4 3 0
BITMAP
F0
F0
F0
F0
ENDCHAR
STARTCHAR 002F
ENCODING 47
SWIDTH 415 0
DWIDTH 15 0
BBX 10 26 2 0
BITMAP
01C0
01C0
03C0
0380
0380
0380
0780
0700
0700
0700
0F00
0E00
0E00
1E00
1C00
1C00
1C00
3C00
3800
3800
3800
7800
7000
7000
7000
F000
ENDCHAR
STARTCHAR 0030
ENCODING 48
SWIDTH 636 0
DWIDTH 23 0
BBX 17 26 3 0
BITMAP
07E000
1FF800
3FFE00
7C3E00
F80F00
F00780
E00780
E00380
E00380
E00380
E00380
E00380
E00380
E00380
E00380
E00380
E00380
E00380
E00380
E00780
F00780
F80F00
7C3E00
3FFE00
1FF800
07E000
ENDCHAR
STARTCHAR 0031
ENCODING 49
SWIDTH 415 0
DWIDTH 15 0
BBX 8 26 2 0
BITMAP
0F
1F
7F
FF
E7
C7
07
07
07
07
07
07
07
07
07
07
07
07
07
07
07
07
07
07
07
07
ENDCHAR
STARTCHAR 0032
ENCODING 50
SWIDTH 581 0
DWIDTH 21 0
BBX 17 26 2 0
BITMAP
03F000
1FFC00
3FFE00
7C1F00
780F00
F00780
F00780
E00380
000380
000380
000780
000780
000F00
001E00
003C00
007800
01F000
03E000
07C000
0F8000
1F0000
3C0000
F80000
FFFF80
FFFF80
FFFF80
ENDCHAR
STARTCHAR 0033
ENCODING 51
SWIDTH 553 0
DWIDTH 20 0
BBX 16 26 2 0
BITMAP
FFFF
FFFF
FFFF
001E
003C
0078
00F0
01E0
07C0
0FC0
0FF8
0FFC
003E
001E
000F
0007
0007
0007
0007
200F
E00F
F01E
783E
7FFC
1FF8
07E0
ENDCHAR
STARTCHAR 0034
ENCODING 52
SWIDTH 609 0
DWIDTH 22 0
BBX 18 26 2 0
BITMAP
00F000
00E000
01E000
01C000
03C000
038000
078000
070000
0F0000
0E0000
1E0000
1E0E00
3C0E00
3C0E00
780E00
780E00
700E00
F00E00
FFFFC0
FFFFC0
FFFFC0
000E00
000E00
000E00
000E00
000E00
ENDCHAR
STARTCHAR 0035
ENCODING 53
SWIDTH 581 0
DWIDTH 21 0
BBX 17 26 2 0
BITMAP
7FFE00
7FFE00
7FFE00
700000
700000
700000
700000
700000
700000
73E000
7FFC00
7FFE00
7C1F00
700F00
000780
000380
000380
000380
000380
E00780
F00780
780F00
7C3E00
3FFC00
1FF800
07E000
ENDCHAR
STARTCHAR 0036
ENCODING 54
SWIDTH 609 0
DWIDTH 22 0
BBX 17 26 3 0
BITMAP
07F000
1FFC00
3FFE00
7C1F00
780400
F00000
E00000
E00000
E00000
E3F000
EFFC00
FFFE00
FC1F00
F80F00
F00780
E00380
E00380
E00380
E00380
E00380
F00780
780F00
7C3F00
3FFE00
1FF800
07E000
ENDCHAR
STARTCHAR 0037
ENCODING 55
SWIDTH 526 0
DWIDTH 19 0
BBX 16 26 1 0
BITMAP
FFFF
FFFF
FFFF
000F
000E
001E
001C
003C
0038
0038
0078
0070
00F0
00E0
00E0
01E0
01C0
03C0
0380
0380
0780
0700
0F00
0E00
1E00
1E00
ENDCHAR
STARTCHAR 0038
ENCODING 56
SWIDTH 581 0
DWIDTH 21 0
BBX 17 26 2 0
BITMAP
07F000
1FFC00
3FFE00
3C1F00
780F00
700700
700700
700700
700700
780F00
3C1F00
3FFE00
1FFC00
3FFE00
7C1F00
780780
F00780
F00380
F00380
F00380
F00780
780780
7C1F00
3FFE00
1FFC00
07F000
ENDCHAR
STARTCHAR 0039
ENCODING 57
SWIDTH 609 0
DWIDTH 22 0
BBX 18 26 2 0
BITMAP
03F000
0FFC00
1FFE00
3E1F00
780780
700380
F003C0
F003C0
E001C0
E001C0
F003C0
7003C0
7807C0
3E1FC0
1FFDC0
0FF9C0
03E1C0
0001C0
0001C0
0003C0
000380
180780
3C1F00
3FFE00
0FFC00
03F000
ENDCHAR
STARTCHAR 003A
ENCODING 58
SWIDTH 304 0
DWIDTH 11 0
BBX 4 15 4 2
BITMAP
F0
F0
F0
F0
00
00
00
00
00
00
00
F0
F0
F0
F0
ENDCHAR
STARTCHAR 003B
ENCODING 59
SWIDTH 304 0
DWIDTH 11 0
BBX 4 24 4 -4
BITMAP
F0
F0
F0
F0
00
00
00
00
00
00
00
00
00
00
00
00
F0
F0
F0
F0
30
20
E0
C0
ENDCHAR
STARTCHAR 003C
ENCODING 60
SWIDTH 609 0
DWIDTH 22 0
BBX 10 17 5 3
BITMAP
0080
01C0
03C0
0780
0F00
1E00
3C00
7800
F000
7800
3C00
1E00
0F00
0780
03C0
01C0
0080
ENDCHAR
STARTCHAR 003D
ENCODING 61
SWIDTH 747 0
DWIDTH 27 0
BBX 19 10 4 8
BITMAP
FFFFE0
FFFFE0
FFFFE0
000000
000000
000000
000000
FFFFE0
FFFFE0
FFFFE0
ENDCHAR
STARTCHAR 003E
ENCODING 62
SWIDTH 609 0
DWIDTH 22 0
BBX 10 17 7 3
BITMAP
4000
E000
F000
7800
3C00
1E00
0F00
0780
03C0
0780
0F00
1E00
3C00
7800
F000
E000
4000
ENDCHAR
STARTCHAR 003F
ENCODING 63
SWIDTH 526 0
DWIDTH 19 0
BBX 15 26 2 0
BITMAP
07E0
1FF8
3FFC
783E
F01E
E00E
E00E
000E
000E
001E
001C
007C
00F8
01F0
03E0
03C0
0380
0380
0780
0000
0000
0000
0780
0780
0780
0780
ENDCHAR
STARTCHAR 0040
ENCODING 64
SWIDTH 913 0
DWIDTH 33 0
BBX 27 27 3 -4
BITMAP
007FC000
01FFF000
07FFFC00
0F803E00
1E000F00
3C000780
78000380
700C01C0
707FE1C0
E0FFE0E0
E0E1E0E0
E1C0E0E0
E1C0E0E0
E1C0E0E0
E1C0E0E0
E1C0E0C0
E0E1E1C0
E0FFFFC0
707FFF80
700C1F00
38000000
3C000000
1F000000
0FC06000
03FFF000
00FFE000
000E0000
ENDCHAR
STARTCHAR 0041
ENCODING 65
SWIDTH 636 0
DWIDTH 23 0
BBX 21 26 1 0
BITMAP
00F800
00F800
00FC00
01FC00
01DC00
01DE00
03CE00
038E00
038F00
078700
070700
070780
0F0380
0E0380
0E03C0
1E01C0
1C01C0
1FFFE0
3FFFE0
3FFFE0
3800F0
780070
700070
700078
F00038
E00038
ENDCHAR
STARTCHAR 0042
ENCODING 66
SWIDTH 609 0
DWIDTH 22 0
BBX 18 26 3 0
BITMAP
FFF000
FFFC00
FFFE00
E00F00
E00780
E00780
E00380
E00380
E00780
E00780
E00F00
FFFE00
FFFC00
FFFF00
E00F80
E003C0
E003C0
E001C0
E001C0
E001C0
E001C0
E003C0
E00F80
FFFF80
FFFF00
FFFC00
ENDCHAR
STARTCHAR 0043
ENCODING 67
SWIDTH 720 0
DWIDTH 26 0
BBX 23 26 1 0
BITMAP
00FF00
03FFC0
0FFFF0
1F81F8
1E007C
3C003C
78001E
78000E
70000E
F00000
F00000
F00000
F00000
E00000
F00000
F00000
F00000
70000C
78000E
78001E
3C003C
1E007C
1F81F8
0FFFF0
03FFE0
00FF00
ENDCHAR
STARTCHAR 0044
ENCODING 68
SWIDTH 692 0
DWIDTH 25 0
BBX 20 26 3 0
BITMAP
FFF000
FFFE00
FFFF00
E01F80
E007C0
E003C0
E001E0
E000E0
E000E0
E000F0
E000F0
E000F0
E00070
E000F0
E000F0
E000F0
E000F0
E000E0
E000E0
E001E0
E003C0
E007C0
E01F80
FFFF00
FFFE00
FFF000
ENDCHAR
STARTCHAR 0045
ENCODING 69
SWIDTH 581 0
DWIDTH 21 0
BBX 16 26 3 0
BITMAP
FFFF
FFFF
FFFF
E000
E000
E000
E000
E000
E000
E000
E000
FFFC
FFFC
FFFC
E000
E000
E000
E000
E000
E000
E000
E000
E000
FFFF
FFFF
FFFF
ENDCHAR
STARTCHAR 0046
ENCODING 70
SWIDTH 498 0
DWIDTH 18 0
BBX 15 26 3 0
BITMAP
FFFE
FFFE
FFFE
E000
E000
E000
E000
E000
E000
E000
E000
E000
FFF8
FFF8
FFF8
E000
E000
E000
E000
E000
E000
E000
E000
E000
E000
E000
ENDCHAR
STARTCHAR 0047
ENCODING 71
SWIDTH 720 0
DWIDTH 26 0
BBX 24 26 1 0
BITMAP
00FF00
03FFC0
0FFFF0
1F81F8
3E0078
3C003C
78001E
780018
700000
F00000
F00000
F00000
E001FF
E001FF
F001FF
F0000F
F0000E
70000E
78001E
78001E
3C003C
1E007C
1F81F8
0FFFF0
03FFC0
00FF00
ENDCHAR
STARTCHAR 0048
ENCODING 72
SWIDTH 692 0
DWIDTH 25 0
BBX 20 26 3 0
BITMAP
E000F0
E000F0
E000F0
E000F0
E000F0
E000F0
E000F0
E000F0
E000F0
E000F0
E000F0
FFFFF0
FFFFF0
FFFFF0
E000F0
E000F0
E000F0
E000F0
E000F0
E000F0
E000F0
E000F0
E000F0
E000F0
E000F0
E000F0
ENDCHAR
STARTCHAR 0049
ENCODING 73
SWIDTH 249 0
DWIDTH 9 0
BBX 3 26 3 0
BITMAP
E0
E0
E0
E0
E0
E0
E0
E0
E0
E0
E0
E0
E0
E0
E0
E0
E0
E0
E0
E0
E0
E0
E0
E0
E0
E0
ENDCHAR
STARTCHAR 004A
ENCODING 74
SWIDTH 470 0
DWIDTH 17 0
BBX 14 26 0 0
BITMAP
001C
001C
001C
001C
001C
001C
001C
001C
001C
001C
001C
001C
001C
001C
001C
001C
001C
001C
001C
001C
E01C
F03C
787C
7FF8
1FF0
0FC0
ENDCHAR
STARTCHAR 004B
ENCODING 75
SWIDTH 609 0
DWIDTH 22 0
BBX 19 26 3 0
BITMAP
E003C0
E00780
E00F00
E01E00
E03C00
E07800
E0F000
E1E000
E3C000
E78000
EF0000
FE0000
FC0000
FE0000
EF0000
E78000
E3C000
E1E000
E0F000
E07800
E03C00
E01E00
E00F00
E00780
E007C0
E003E0
ENDCHAR
STARTCHAR 004C
ENCODING 76
SWIDTH 526 0
DWIDTH 19 0
BBX 15 26 3 0
BITMAP
E000
E000
E000
E000
E000
E000
E000
E000
E000
E000
E000
E000
E000
E000
E000
E000
E000
E000
E000
E000
E000
E000
E000
FFFE
FFFE
FFFE
ENDCHAR
STARTCHAR 004D
ENCODING 77
SWIDTH 858 0
DWIDTH 31 0
BBX 25 26 3 0
BITMAP
E0000380
E0000780
F0000780
F0000F80
F8000F80
F8001F80
FC001F80
FC003F80
FC003B80
EE003B80
EE007380
E7007380
E700E380
E380E380
E381C380
E3C1C380
E1C3C380
E1E38380
E0E78380
E0F70380
E07F0380
E07E0380
E03E0380
E03C0380
E01C0380
E0180380
ENDCHAR
STARTCHAR 004E
ENCODING 78
SWIDTH 692 0
DWIDTH 25 0
BBX 20 26 3 0
BITMAP
E000F0
F000F0
F000F0
F800F0
FC00F0
FC00F0
FE00F0
EF00F0
E700F0
E780F0
E3C0F0
E1C0F0
E1E0F0
E0F0F0
E070F0
E078F0
E03CF0
E01CF0
E01EF0
E00FF0
E007F0
E007F0
E003F0
E001F0
E001F0
E000F0
ENDCHAR
STARTCHAR 004F
ENCODING 79
SWIDTH 720 0
DWIDTH 26 0
BBX 24 26 1 0
BITMAP
00FF00
03FFC0
0FFFF0
1F81F8
1E007C
3C003E
78001E
78000E
70000F
F0000F
F00007
F00007
E00007
E00007
F00007
F00007
F00007
70000F
78000E
78001E
3C003E
1E007C
1F81F8
0FFFF0
03FFE0
00FF00
ENDCHAR
STARTCHAR 0050
ENCODING 80
SWIDTH 609 0
DWIDTH 22 0
BBX 18 26 3 0
BITMAP
FFF800
FFFE00
FFFF00
E00F80
E00380
E003C0
E001C0
E001C0
E001C0
E001C0
E003C0
E00380
E00F80
FFFF00
FFFE00
FFF800
E00000
E00000
E00000
E00000
E00000
E00000
E00000
E00000
E00000
E00000
ENDCHAR
STARTCHAR 0051
ENCODING 81
SWIDTH 720 0
DWIDTH 26 0
BBX 24 26 1 0
BITMAP
00FF00
03FFC0
0FFFF0
1F81F8
1E007C
3C003E
78001E
78000E
70000F
F0000F
F00007
F00007
E00007
E00007
F00007
F00007
F00007
70000F
7801CE
7801FE
3C00FC
1E007C
1F81FE
0FFFFF
03FFCE
00FF04
ENDCHAR
STARTCHAR 0052
ENCODING 82
SWIDTH 636 0
DWIDTH 23 0
BBX 18 26 3 0
BITMAP
FFF800
FFFE00
FFFF00
E00F80
E00380
E003C0
E001C0
E001C0
E001C0
E001C0
E003C0
E00380
E00F80
FFFF00
FFFE00
FFFC00
E01C00
E01E00
E01E00
E00F00
E00F00
E00780
E00780
E003C0
E003C0
E001C0
ENDCHAR
STARTCHAR 0053
ENCODING 83
SWIDTH 636 0
DWIDTH 23 0
BBX 20 26 1 0
BITMAP
01FC00
0FFF00
1FFFC0
3F07C0
3C01E0
7800F0
7800F0
780070
780000
3C0000
3F8000
1FF800
07FF00
00FFC0
000FE0
0001F0
0000F0
000070
F00070
F00070
780070
7C00F0
3F03E0
1FFFC0
07FF80
01FE00
ENDCHAR
STARTCHAR 0054
ENCODING 84
SWIDTH 609 0
DWIDTH 22 0
BBX 21 26 0 0
BITMAP
FFFFF8
FFFFF8
FFFFF8
007000
007000
007000
007000
007000
007000
007000
007000
007000
007000
007000
007000
007000
007000
007000
007000
007000
007000
007000
007000
007000
007000
007000
ENDCHAR
STARTCHAR 0055
ENCODING 85
SWIDTH 720 0
DWIDTH 26 0
BBX 20 26 3 0
BITMAP
E00070
E00070
E00070
E00070
E00070
E00070
E00070
E00070
E00070
E00070
E00070
E00070
E00070
E00070
E00070
E00070
E00070
E00070
E000F0
F000F0
F001E0
7803E0
3E0FC0
1FFF80
0FFF00
03F800
ENDCHAR
STARTCHAR 0056
ENCODING 86
SWIDTH 609 0
DWIDTH 22 0
BBX 22 26 0 0
BITMAP
F0001C
70003C
700038
780038
380078
380070
3C0070
1C00F0
1C00E0
1E01E0
0E01E0
0E01C0
0F03C0
0703C0
070380
078780
038780
038700
03CF00
01CF00
01CE00
01FE00
00FE00
00FC00
00FC00
007C00
ENDCHAR
STARTCHAR 0057
ENCODING 87
SWIDTH 941 0
DWIDTH 34 0
BBX 33 26 1 0
BITMAP
E003C00780
E003C00700
F003E00700
7007E00F00
7007E00E00
7007E00E00
7807F00E00
380F701E00
380E701C00
3C0E701C00
1C1E383C00
1C1C383800
1C1C383800
1E1C3C3800
0E3C1C7800
0E381C7000
0F381C7000
07380EF000
07700EE000
07700EE000
07F00FE000
03F007C000
03E007C000
03E007C000
01E003C000
01C0038000
ENDCHAR
STARTCHAR 0058
ENCODING 88
SWIDTH 609 0
DWIDTH 22 0
BBX 21 26 1 0
BITMAP
F00078
7800F0
7801E0
3C01E0
1E03C0
1E0780
0F0700
070F00
079E00
03DC00
01FC00
01F800
00F000
00F800
01F800
03FC00
03DE00
079E00
0F0F00
0F0780
1E0780
3C03C0
3C01E0
7801E0
F000F0
F00078
ENDCHAR
STARTCHAR 0059
ENCODING 89
SWIDTH 581 0
DWIDTH 21 0
BBX 20 26 0 0
BITMAP
F00070
7800F0
7800E0
3C01E0
1C03C0
1E03C0
0E0780
0F0700
078F00
078E00
03DE00
01FC00
01FC00
00F800
00F000
007000
007000
007000
007000
007000
007000
007000
007000
007000
007000
007000
ENDCHAR
STARTCHAR 005A
ENCODING 90
SWIDTH 636 0
DWIDTH 23 0
BBX 19 26 2 0
BITMAP
FFFFE0
FFFFC0
FFFFC0
000780
000780
000F00
001E00
001E00
003C00
003C00
007800
00F000
00F000
01E000
03C000
03C000
078000
078000
0F0000
1E0000
1E0000
3C0000
3C0000
7FFFE0
FFFFE0
FFFFE0
ENDCHAR
STARTCHAR 005B
ENCODING 91
SWIDTH 415 0
DWIDTH 15 0
BBX 7 40 5 -8
BITMAP
FE
FE
FE
E0
E0
E0
E0
E0
E0
E0
E0
E0
E0
E0
E0
E0
E0
E0
E0
E0
E0
E0
E0
E0
E0
E0
E0
E0
E0
E0
E0
E0
E0
E0
E0
E0
E0
FE
FE
FE
ENDCHAR
STARTCHAR 005C
ENCODING 92
SWIDTH 415 0
DWIDTH 15 0
BBX 10 26 2 0
BITMAP
F000
7000
7000
7000
7800
3800
3800
3800
3C00
1C00
1C00
1C00
1E00
0E00
0E00
0F00
0700
0700
0700
0780
0380
0380
0380
03C0
01C0
01C0
ENDCHAR
STARTCHAR 005D
ENCODING 93
SWIDTH 415 0
DWIDTH 15 0
BBX 7 40 3 -8
BITMAP
FE
FE
FE
0E
0E
0E
0E
0E
0E
0E
0E
0E
0E
0E
0E
0E
0E
0E
0E
0E
0E
0E
0E
0E
0E
0E
0E
0E
0E
0E
0E
0E
0E
0E
0E
0E
0E
FE
FE
FE
ENDCHAR
STARTCHAR 005E
ENCODING 94
SWIDTH 664 0
DWIDTH 24 0
BBX 16 10 4 17
BITMAP
0180
03C0
07E0
0FF0
1E78
3C3C
781E
F00F
E007
4002
ENDCHAR
STARTCHAR 005F
ENCODING 95
SWIDTH 664 0
DWIDTH 24 0
BBX 24 3 0 -4
BITMAP
FFFFFF
FFFFFF
FFFFFF
ENDCHAR
STARTCHAR 0060
ENCODING 96
SWIDTH 498 0
DWIDTH 18 0
BBX 5 6 6 29
BITMAP
E0
60
70
70
30
38
ENDCHAR
STARTCHAR 0061
ENCODING 97
SWIDTH 553 0
DWIDTH 20 0
BBX 17 20 1 0
BITMAP
03F800
0FFE00
1FFF00
3E0F00
780780
300380
000380
000F80
03FF80
1FFF80
3FC380
7C0380
700380
F00780
F00780
700F80
781F80
7FFB80
3FF380
0FC000
ENDCHAR
STARTCHAR 0062
ENCODING 98
SWIDTH 609 0
DWIDTH 22 0
BBX 18 26 2 0
BITMAP
F00000
F00000
F00000
F00000
F00000
F00000
F1F000
F7FC00
FFFF00
FC0F00
F80780
F00380
F003C0
F003C0
E001C0
E001C0
E001C0
E001C0
F003C0
F003C0
F00380
F80780
FC0F00
FFFF00
EFFC00
E3F800
ENDCHAR
STARTCHAR 0063
ENCODING 99
SWIDTH 553 0
DWIDTH 20 0
BBX 18 20 1 0
BITMAP
03F800
0FFE00
1FFF00
3E0F80
3C03C0
7803C0
700000
700000
F00000
F00000
F00000
F00000
700000
700000
7803C0
3C03C0
3E0F80
1FFF00
0FFE00
03F800
ENDCHAR
STARTCHAR 0064
ENCODING 100
SWIDTH 609 0
DWIDTH 22 0
BBX 18 26 1 0
BITMAP
0001C0
0001C0
0001C0
0001C0
0001C0
0001C0
03F1C0
0FFDC0
1FFFC0
3E0FC0
3C03C0
7803C0
7001C0
7001C0
F001C0
F001C0
F001C0
F001C0
7001C0
7001C0
7803C0
3C03C0
3E0FC0
1FFFC0
0FFDC0
03F1C0
ENDCHAR
STARTCHAR 0065
ENCODING 101
SWIDTH 581 0
DWIDTH 21 0
BBX 19 20 1 0
BITMAP
01F800
0FFE00
1FFF00
3E0780
3C03C0
7801C0
7001C0
7001E0
7FFFE0
FFFFE0
FFFFE0
F00000
700000
700000
7801C0
3C03C0
3E0F80
1FFF80
07FE00
01F800
ENDCHAR
STARTCHAR 0066
ENCODING 102
SWIDTH 360 0
DWIDTH 13 0
BBX 12 26 1 0
BITMAP
03F0
07F0
0FF0
0E00
1E00
1E00
FFF0
FFF0
FFF0
1E00
1E00
1E00
1E00
1E00
1E00
1E00
1E00
1E00
1E00
1E00
1E00
1E00
1E00
1E00
1E00
1E00
ENDCHAR
STARTCHAR 0067
ENCODING 103
SWIDTH 609 0
DWIDTH 22 0
BBX 18 29 1 -9
BITMAP
03F1C0
0FFDC0
1FFFC0
3E0FC0
3C03C0
7803C0
7001C0
7001C0
F001C0
F001C0
F001C0
F001C0
7001C0
7001C0
7803C0
3C03C0
3E0FC0
1FFFC0
0FFDC0
03F1C0
0001C0
0001C0
0003C0
0803C0
3C0780
3E0F80
1FFF00
0FFE00
03F800
ENDCHAR
STARTCHAR 0068
ENCODING 104
SWIDTH 609 0
DWIDTH 22 0
BBX 18 26 2 0
BITMAP
E00000
E00000
E00000
E00000
E00000
E00000
E1F800
E7FE00
EFFF00
FE1F00
F80780
F80780
F00380
F003C0
F003C0
F003C0
F003C0
F003C0
F003C0
F003C0
F003C0
F003C0
F003C0
F003C0
F003C0
F003C0
ENDCHAR
STARTCHAR 0069
ENCODING 105
SWIDTH 249 0
DWIDTH 9 0
BBX 3 26 3 0
BITMAP
E0
E0
E0
00
00
00
E0
E0
E0
E0
E0
E0
E0
E0
E0
E0
E0
E0
E0
E0
E0
E0
E0
E0
E0
E0
ENDCHAR
STARTCHAR 006A
ENCODING 106
SWIDTH 276 0
DWIDTH 10 0
BBX 7 35 0 -9
BITMAP
0E
0E
0E
00
00
00
0E
0E
0E
0E
0E
0E
0E
0E
0E
0E
0E
0E
0E
0E
0E
0E
0E
0E
0E
0E
0E
0E
0E
0E
1E
3E
FC
FC
F0
ENDCHAR
STARTCHAR 006B
ENCODING 107
SWIDTH 498 0
DWIDTH 18 0
BBX 16 26 3 0
BITMAP
E000
E000
E000
E000
E000
E000
E01E
E03C
E078
E0F0
E1E0
E3C0
E7C0
E780
EF00
FE00
FE00
EF00
E780
E3C0
E1E0
E1F0
E0F8
E07C
E03E
E01F
ENDCHAR
STARTCHAR 006C
ENCODING 108
SWIDTH 249 0
DWIDTH 9 0
BBX 3 26 3 0
BITMAP
E0
E0
E0
E0
E0
E0
E0
E0
E0
E0
E0
E0
E0
E0
E0
E0
E0
E0
E0
E0
E0
E0
E0
E0
E0
E0
ENDCHAR
STARTCHAR 006D
ENCODING 109
SWIDTH 858 0
DWIDTH 31 0
BBX 27 20 2 0
BITMAP
E3F03E00
EFF8FF80
FFFDFFC0
FC3F83C0
F81F01E0
F00F01E0
F00E00E0
F00E00E0
F00E00E0
F00E00E0
F00E00E0
F00E00E0
F00E00E0
F00E00E0
F00E00E0
F00E00E0
F00E00E0
F00E00E0
F00E00E0
F00E00E0
ENDCHAR
STARTCHAR 006E
ENCODING 110
SWIDTH 609 0
DWIDTH 22 0
BBX 18 20 2 0
BITMAP
E1F800
E7FE00
EFFF00
FE1F00
F80780
F80780
F00380
F003C0
F003C0
F003C0
F003C0
F003C0
F003C0
F003C0
F003C0
F003C0
F003C0
F003C0
F003C0
F003C0
ENDCHAR
STARTCHAR 006F
ENCODING 111
SWIDTH 609 0
DWIDTH 22 0
BBX 19 20 1 0
BITMAP
01F800
0FFE00
1FFF00
3E0F80
3C03C0
7801C0
7001E0
7000E0
F000E0
F000E0
F000E0
F000E0
7000E0
7001E0
7801C0
3C03C0
3E0F80
1FFF00
07FE00
03F800
ENDCHAR
STARTCHAR 0070
ENCODING 112
SWIDTH 609 0
DWIDTH 22 0
BBX 18 28 2 -8
BITMAP
E3F000
E7FC00
EFFF00
FC0F00
F80780
F00380
F003C0
F003C0
E001C0
E001C0
E001C0
E001C0
F003C0
F003C0
F00380
F80780
FC0F00
FFFF00
F7FC00
F1F800
F00000
F00000
F00000
F00000
F00000
F00000
F00000
F00000
ENDCHAR
STARTCHAR 0071
ENCODING 113
SWIDTH 609 0
DWIDTH 22 0
BBX 18 28 1 -8
BITMAP
03F1C0
0FFDC0
1FFFC0
3E0FC0
3C03C0
7803C0
7001C0
7001C0
F001C0
F001C0
F001C0
F001C0
7001C0
7001C0
7803C0
3C03C0
3E0FC0
1FFFC0
0FFDC0
03F1C0
0001C0
0001C0
0001C0
0001C0
0001C0
0001C0
0001C0
0001C0
ENDCHAR
STARTCHAR 0072
ENCODING 114
SWIDTH 360 0
DWIDTH 13 0
BBX 10 20 3 0
BITMAP
C3C0
CFC0
DFC0
FC00
F000
F000
E000
E000
E000
E000
E000
E000
E000
E000
E000
E000
E000
E000
E000
E000
ENDCHAR
STARTCHAR 0073
ENCODING 115
SWIDTH 526 0
DWIDTH 19 0
BBX 17 20 1 0
BITMAP
07F000
1FFC00
3FFE00
7C1F00
780700
700780
780000
7C0000
3FC000
0FF800
03FE00
003F00
000F00
000780
F00780
780780
7C0F00
3FFF00
1FFE00
07F800
ENDCHAR
STARTCHAR 0074
ENCODING 116
SWIDTH 415 0
DWIDTH 15 0
BBX 13 25 0 0
BITMAP
0F00
0F00
0F00
0F00
0F00
FFF8
FFF8
FFF8
0F00
0F00
0F00
0F00
0F00
0F00
0F00
0F00
0F00
0F00
0F00
0F00
0F00
0780
07F8
03F8
01F8
ENDCHAR
STARTCHAR 0075
ENCODING 117
SWIDTH 609 0
DWIDTH 22 0
BBX 17 20 2 0
BITMAP
E00380
E00380
E00380
E00380
E00380
E00380
E00380
E00380
E00380
E00380
E00380
E00380
F00380
F00380
700780
780F80
7E1F80
3FFF80
1FFB80
07E380
ENDCHAR
STARTCHAR 0076
ENCODING 118
SWIDTH 526 0
DWIDTH 19 0
BBX 17 20 1 0
BITMAP
E00380
E00780
700700
700700
780F00
380E00
380E00
3C1C00
1C1C00
1C1C00
1E3800
0E3800
0E3800
0F7000
077000
077000
03E000
03E000
03E000
01C000
ENDCHAR
STARTCHAR 0077
ENCODING 119
SWIDTH 775 0
DWIDTH 28 0
BBX 26 20 1 0
BITMAP
E01E01C0
E01E01C0
F01E03C0
701F0380
703F0380
783F0380
383B0700
38738700
38738700
1C738F00
1CE1CE00
1CE1CE00
1EE1DE00
0EC0FC00
0FC0FC00
0FC0FC00
07807800
07807800
07807800
03803800
ENDCHAR
STARTCHAR 0078
ENCODING 120
SWIDTH 526 0
DWIDTH 19 0
BBX 18 20 1 0
BITMAP
F00380
700780
780F00
3C1E00
1E1C00
0E3C00
0F7800
07F000
03F000
01E000
03E000
03F000
07F000
0F7800
1E3C00
1C1E00
3C0E00
780F00
F00780
F003C0
ENDCHAR
STARTCHAR 0079
ENCODING 121
SWIDTH 526 0
DWIDTH 19 0
BBX 18 28 1 -8
BITMAP
E001C0
F00380
700380
700780
780700
380700
3C0F00
1C0E00
1C0E00
1E1C00
0E1C00
0E3C00
073800
073800
07F800
03F000
03F000
01E000
01E000
01E000
01C000
01C000
038000
038000
038000
070000
070000
0F0000
ENDCHAR
STARTCHAR 007A
ENCODING 122
SWIDTH 526 0
DWIDTH 19 0
BBX 17 20 1 0
BITMAP
7FFF80
7FFF00
7FFE00
001E00
003C00
003800
007800
00F000
00E000
01C000
03C000
078000
070000
0E0000
1E0000
1C0000
380000
7FFF00
FFFF00
FFFF00
ENDCHAR
STARTCHAR 007B
ENCODING 123
SWIDTH 443 0
DWIDTH 16 0
BBX 9 40 5 -8
BITMAP
0F80
1F80
1F80
3C00
3800
3800
3800
3800
3800
3800
3800
3800
3800
3800
3800
3800
3800
7800
7000
F000
F000
7800
7800
3800
3800
3800
3800
3800
3800
3800
3800
3800
3800
3800
3800
3800
3C00
1F80
1F80
0780
ENDCHAR
STARTCHAR 007C
ENCODING 124
SWIDTH 276 0
DWIDTH 10 0
BBX 3 26 3 0
BITMAP
E0
E0
E0
E0
E0
E0
E0
E0
E0
E0
E0
E0
E0
E0
E0
E0
E0
E0
E0
E0
E0
E0
E0
E0
E0
E0
ENDCHAR
STARTCHAR 007D
ENCODING 125
SWIDTH 443 0
DWIDTH 16 0
BBX 8 40 2 -8
BITMAP
F0
F8
FC
1C
1C
1C
1C
1C
1C
1C
1C
1C
1C
1C
1C
1C
1C
1E
0F
07
07
0F
1E
1C
1C
1C
1C
1C
1C
1C
1C
1C
1C
1C
1C
1C
1C
FC
F8
F0
ENDCHAR
STARTCHAR 007E
ENCODING 126
SWIDTH 692 0
DWIDTH 25 0
BBX 16 6 4 8
BITMAP
7E07
7F87
FFEF
F3FF
E0FF
E03C
ENDCHAR
STARTCHAR 00A0
ENCODING 160
SWIDTH 193 0
DWIDTH 7 0
BBX 0 0 0 0
BITMAP
ENDCHAR
STARTCHAR 00A1
ENCODING 161
SWIDTH 332 0
DWIDTH 12 0
BBX 4 26 4 -6
BITMAP
F0
F0
F0
00
00
00
F0
F0
F0
F0
F0
F0
F0
F0
F0
F0
F0
F0
F0
F0
F0
F0
F0
F0
F0
F0
ENDCHAR
STARTCHAR 00A2
ENCODING 162
SWIDTH 553 0
DWIDTH 20 0
BBX 18 27 1 -1
BITMAP
006000
006000
006000
00F000
07FE00
1FFF00
1F1F80
3C0780
7803C0
780100
700000
700000
F00000
F00000
F00000
700000
700000
780000
7803C0
3C0780
1F0F80
1FFF00
07FE00
01F000
006000
006000
006000
ENDCHAR
STARTCHAR 00A3
ENCODING 163
SWIDTH 581 0
DWIDTH 21 0
BBX 18 26 1 0
BITMAP
00FC00
01FE00
03FF00
078780
0703C0
0F01C0
0F01C0
0F0000
0F0000
0F0000
0F0000
0F0000
FFFC00
FFFC00
FFFC00
0F0000
0F0000
0F0000
0F0000
0F0000
0F0000
0F0000
1F0000
FFFF80
FFFF80
FFFF80
ENDCHAR
STARTCHAR 00A4
ENCODING 164
SWIDTH 664 0
DWIDTH 24 0
BBX 21 22 1 2
BITMAP
200010
707838
FBFF78
7FFFF0
3F07E0
1E01E0
3C00E0
3800F0
380070
700070
700070
700070
700070
380070
3800F0
3C00E0
1E01E0
3F07E0
7FFFF0
FBFF78
707838
200010
ENDCHAR
STARTCHAR 00A5
ENCODING 165
SWIDTH 581 0
DWIDTH 21 0
BBX 20 26 0 0
BITMAP
F00070
7800F0
7800E0
3C01E0
1C03C0
1E03C0
0E0780
0F0700
078F00
078E00
03DE00
01FC00
01FC00
00F800
1FFF80
1FFF80
1FFF80
007000
007000
1FFF80
1FFF80
1FFF80
007000
007000
007000
007000
ENDCHAR
STARTCHAR 00A6
ENCODING 166
SWIDTH 276 0
DWIDTH 10 0
BBX 3 32 3 -6
BITMAP
E0
E0
E0
E0
E0
E0
E0
E0
E0
E0
E0
E0
E0
E0
00
00
00
00
E0
E0
E0
E0
E0
E0
E0
E0
E0
E0
E0
E0
E0
E0
ENDCHAR
STARTCHAR 00A7
ENCODING 167
SWIDTH 526 0
DWIDTH 19 0
BBX 16 29 2 -5
BITMAP
07C0
1FF0
7FF8
787C
F01C
F01E
F000
7800
7F00
3FE0
3FFC
78FE
F01F
E00F
E007
F00F
F80E
7FBE
1FFC
03FC
007E
001E
000E
F00E
F00E
781E
7FFC
1FF8
07E0
ENDCHAR
STARTCHAR 00A8
ENCODING 168
SWIDTH 526 0
DWIDTH 19 0
BBX 11 3 4 30
BITMAP
F1E0
F1E0
F1E0
ENDCHAR
STARTCHAR 00A9
ENCODING 169
SWIDTH 830 0
DWIDTH 30 0
BBX 28 27 1 -1
BITMAP
003FC000
00FFF000
03FFFC00
07E07E00
0F801F00
1E000780
3C1F83C0
783FE1C0
707FF1E0
70E070E0
F0E030F0
E1C00070
E1C00070
E1C00070
E1C00070
E1C00070
F0E020F0
70E070E0
707FF1E0
783FE1C0
3C1F83C0
1E000780
1F000F00
0FE07E00
03FFFC00
01FFF800
003FC000
ENDCHAR
STARTCHAR 00AA
ENCODING 170
SWIDTH 304 0
DWIDTH 11 0
BBX 9 10 1 10
BITMAP
1E00
7F00
6180
0180
1F80
7D80
6180
C380
7780
7D80
ENDCHAR
STARTCHAR 00AB
ENCODING 171
SWIDTH 553 0
DWIDTH 20 0
BBX 15 16 3 2
BITMAP
0200
070C
0E1C
0E38
1C70
3870
70E0
E1C0
E1C0
70E0
38E0
1C70
1C38
0E1C
070E
0208
ENDCHAR
STARTCHAR 00AC
ENCODING 172
SWIDTH 609 0
DWIDTH 22 0
BBX 17 7 2 7
BITMAP
FFFF80
FFFF80
FFFF80
000180
000180
000180
000180
ENDCHAR
STARTCHAR 00AD
ENCODING 173
SWIDTH 415 0
DWIDTH 15 0
BBX 11 3 2 10
BITMAP
FFE0
FFE0
FFE0
ENDCHAR
STARTCHAR 00AE
ENCODING 174
SWIDTH 636 0
DWIDTH 23 0
BBX 17 18 3 10
BITMAP
07E000
1FF800
3E3E00
780F00
700700
E7E380
C63180
C63180
C67180
C7E180
C66180
C62380
E63380
700700
780E00
3E3E00
0FF800
03E000
ENDCHAR
STARTCHAR 00AF
ENCODING 175
SWIDTH 498 0
DWIDTH 18 0
BBX 10 3 4 30
BITMAP
FFC0
FFC0
FFC0
ENDCHAR
STARTCHAR 00B0
ENCODING 176
SWIDTH 443 0
DWIDTH 16 0
BBX 13 13 1 13
BITMAP
0F80
3FE0
7FF0
7870
E038
E038
E038
E038
F078
78F0
3FF0
1FE0
0780
ENDCHAR
STARTCHAR 00B1
ENCODING 177
SWIDTH 609 0
DWIDTH 22 0
BBX 17 17 2 3
BITMAP
01C000
01C000
01C000
01C000
FFFF80
FFFF80
FFFF80
01C000
01C000
01C000
01C000
01C000
000000
000000
FFFF80
FFFF80
FFFF80
ENDCHAR
STARTCHAR 00B2
ENCODING 178
SWIDTH 415 0
DWIDTH 15 0
BBX 11 16 2 10
BITMAP
1F00
7F80
71C0
E0C0
C0E0
00E0
00E0
01C0
03C0
0780
0E00
1C00
3800
7000
FFE0
FFE0
ENDCHAR
STARTCHAR 00B3
ENCODING 179
SWIDTH 387 0
DWIDTH 14 0
BBX 11 16 1 10
BITMAP
7FE0
7FE0
00E0
0380
0700
0E00
1F00
0FC0
00C0
00E0
0060
0060
E0E0
71C0
3FC0
1F00
ENDCHAR
STARTCHAR 00B4
ENCODING 180
SWIDTH 498 0
DWIDTH 18 0
BBX 5 6 7 29
BITMAP
38
38
30
70
60
E0
ENDCHAR
STARTCHAR 00B5
ENCODING 181
SWIDTH 609 0
DWIDTH 22 0
BBX 18 28 2 -8
BITMAP
F003C0
F003C0
F003C0
F003C0
F003C0
F003C0
F003C0
F003C0
F003C0
F003C0
F003C0
F003C0
F003C0
F003C0
F807C0
F807C0
FE1FC0
FFFDC0
EFF9C0
E7E1C0
E00000
E00000
E00000
E00000
E00000
E00000
E00000
E00000
ENDCHAR
STARTCHAR 00B6
ENCODING 182
SWIDTH 664 0
DWIDTH 24 0
BBX 20 31 2 -5
BITMAP
07FCF0
1FFCF0
3FFCF0
3FFCF0
7FFCF0
7FFCF0
FFFCF0
FFFCF0
FFFCF0
FFFCF0
7FFCF0
7FFCF0
7FFCF0
3FFCF0
1FFCF0
0FFCF0
003CF0
003CF0
003CF0
003CF0
003CF0
003CF0
003CF0
003CF0
003CF0
003CF0
003CF0
003CF0
003CF0
003CF0
003CF0
ENDCHAR
STARTCHAR 00B7
ENCODING 183
SWIDTH 249 0
DWIDTH 9 0
BBX 4 4 2 9
BITMAP
70
F0
F0
70
ENDCHAR
STARTCHAR 00B8
ENCODING 184
SWIDTH 415 0
DWIDTH 15 0
BBX 6 9 4 -8
BITMAP
18
30
30
38
1C
0C
1C
7C
F8
ENDCHAR
STARTCHAR 00B9
ENCODING 185
SWIDTH 332 0
DWIDTH 12 0
BBX 6 16 2 10
BITMAP
3C
7C
FC
DC
1C
1C
1C
1C
1C
1C
1C
1C
1C
1C
1C
1C
ENDCHAR
STARTCHAR 00BA
ENCODING 186
SWIDTH 360 0
DWIDTH 13 0
BBX 10 10 1 10
BITMAP
1E00
3F80
71C0
60C0
E0C0
E0C0
60C0
71C0
3F80
1E00
ENDCHAR
STARTCHAR 00BB
ENCODING 187
SWIDTH 553 0
DWIDTH 20 0
BBX 15 16 2 2
BITMAP
0080
61C0
70E0
38E0
1C70
1C38
0E1C
070E
070E
0E1C
0E38
1C70
3870
70E0
E1C0
2080
ENDCHAR
STARTCHAR 00BC
ENCODING 188
SWIDTH 996 0
DWIDTH 36 0
BBX 30 26 2 0
BITMAP
3C000200
7C000700
FC000F00
DC000E00
1C001C00
1C003800
1C007800
1C007000
1C00E000
1C01C000
1C03C1C0
1C078180
1C070380
1C0E0300
1C1C0700
1C3C0600
00380E00
00700E30
00E01C30
01E01C30
01C03830
03803FFC
07003FFC
0F000030
0E000030
04000030
ENDCHAR
STARTCHAR 00BD
ENCODING 189
SWIDTH 969 0
DWIDTH 35 0
BBX 31 26 2 0
BITMAP
3C000200
7C000700
FC000F00
9C000E00
1C001C00
1C003800
1C007800
1C007000
1C00E000
1C01C1F0
1C0387F8
1C07871C
1C070E0E
1C0E0C0E
1C1C0006
1C3C000E
0038000E
0070001C
00E00038
01E00070
01C000E0
038001C0
07000380
0F000F00
0E000FFE
04000FFE
ENDCHAR
STARTCHAR 00BE
ENCODING 190
SWIDTH 996 0
DWIDTH 36 0
BBX 33 26 1 0
BITMAP
7FE0004000
7FE000F000
00E000E000
038001C000
0700038000
0E00078000
1F00070000
0FC00E0000
00C01C0000
00E03C1800
0060383800
0060703000
E0E0E07000
71C1E07000
3FC1C0E000
1F0380E000
000700C600
000F01C600
000E018600
001C038600
0038030600
007007FF80
007007FF80
00E0000600
01C0000600
0080000600
ENDCHAR
STARTCHAR 00BF
ENCODING 191
SWIDTH 526 0
DWIDTH 19 0
BBX 15 27 2 -7
BITMAP
03C0
03C0
03C0
03C0
0000
0000
0000
03C0
03C0
03C0
0380
0780
0F00
1F00
3E00
7800
7000
F000
E000
E000
E00E
E00E
F01E
783C
7FFC
3FF8
07E0
ENDCHAR
STARTCHAR 00C0
ENCODING 192
SWIDTH 636 0
DWIDTH 23 0
BBX 21 35 1 0
BITMAP
018000
01C000
00C000
00E000
00E000
006000
000000
000000
000000
00F800
00F800
00FC00
01FC00
01DC00
01DE00
03CE00
038E00
038F00
078700
070700
070780
0F0380
0E0380
0E03C0
1E01C0
1C01C0
1FFFE0
3FFFE0
3FFFE0
3800F0
780070
700070
700078
F00038
E00038
ENDCHAR
STARTCHAR 00C1
ENCODING 193
SWIDTH 636 0
DWIDTH 23 0
BBX 21 35 1 0
BITMAP
000C00
001C00
001C00
001800
003800
003000
000000
000000
000000
00F800
00F800
00FC00
01FC00
01DC00
01DE00
03CE00
038E00
038F00
078700
070700
070780
0F0380
0E0380
0E03C0
1E01C0
1C01C0
1FFFE0
3FFFE0
3FFFE0
3800F0
780070
700070
700078
F00038
E00038
ENDCHAR
STARTCHAR 00C2
ENCODING 194
SWIDTH 636 0
DWIDTH 23 0
BBX 21 34 1 0
BITMAP
007800
00F800
01DC00
038E00
070700
000000
000000
000000
00F800
00F800
00FC00
01FC00
01DC00
01DE00
03CE00
038E00
038F00
078700
070700
070780
0F0380
0E0380
0E03C0
1E01C0
1C01C0
1FFFE0
3FFFE0
3FFFE0
3800F0
780070
700070
700078
F00038
E00038
ENDCHAR
STARTCHAR 00C3
ENCODING 195
SWIDTH 636 0
DWIDTH 23 0
BBX 21 34 1 0
BITMAP
03E300
07FF00
063F00
060E00
000000
000000
000000
000000
00F800
00F800
00FC00
01FC00
01DC00
01DE00
03CE00
038E00
038F00
078700
070700
070780
0F0380
0E0380
0E03C0
1E01C0
1C01C0
1FFFE0
3FFFE0
3FFFE0
3800F0
780070
700070
700078
F00038
E00038
ENDCHAR
STARTCHAR 00C4
ENCODING 196
SWIDTH 636 0
DWIDTH 23 0
BBX 21 33 1 0
BITMAP
038700
038700
038700
000000
000000
000000
000000
00F800
00F800
00FC00
01FC00
01DC00
01DE00
03CE00
038E00
038F00
078700
070700
070780
0F0380
0E0380
0E03C0
1E01C0
1C01C0
1FFFE0
3FFFE0
3FFFE0
3800F0
780070
700070
700078
F00038
E00038
ENDCHAR
STARTCHAR 00C5
ENCODING 197
SWIDTH 636 0
DWIDTH 23 0
BBX 21 36 1 0
BITMAP
00F800
01FC00
018E00
038600
018600
01CE00
01FC00
007800
000000
000000
00F800
00F800
00FC00
01FC00
01DC00
01DE00
03CE00
038E00
038F00
078700
070700
070780
0F0380
0E0380
0E03C0
1E01C0
1C01C0
1FFFE0
3FFFE0
3FFFE0
3800F0
780070
700070
700078
F00038
E00038
ENDCHAR
STARTCHAR 00C6
ENCODING 198
SWIDTH 913 0
DWIDTH 33 0
BBX 31 26 1 0
BITMAP
00FFFFFE
00FFFFFE
00FFFFFE
01E38000
01C38000
01C38000
03C38000
03838000
03838000
07838000
07038000
0703FFF0
0F03FFF0
0E03FFF0
0E038000
1E038000
1C038000
1FFF8000
3FFF8000
3FFF8000
38038000
78038000
70038000
7003FFFE
F003FFFE
E003FFFE
ENDCHAR
STARTCHAR 00C7
ENCODING 199
SWIDTH 720 0
DWIDTH 26 0
BBX 23 34 1 -8
BITMAP
00FF00
03FFC0
0FFFF0
1F81F8
1E007C
3C003C
78001E
78000E
70000E
F00000
F00000
F00000
F00000
E00000
F00000
F00000
F00000
70000C
78000E
78001E
3C003E
3E007C
1F81F8
0FFFF0
03FFC0
00FF00
001C00
001800
001E00
000E00
000600
002E00
003E00
003C00
ENDCHAR
STARTCHAR 00C8
ENCODING 200
SWIDTH 581 0
DWIDTH 21 0
BBX 16 35 3 0
BITMAP
0600
0700
0300
0380
0380
0180
0000
0000
0000
FFFF
FFFF
FFFF
E000
E000
E000
E000
E000
E000
E000
E000
FFFC
FFFC
FFFC
E000
E000
E000
E000
E000
E000
E000
E000
E000
FFFF
FFFF
FFFF
ENDCHAR
STARTCHAR 00C9
ENCODING 201
SWIDTH 581 0
DWIDTH 21 0
BBX 16 35 3 0
BITMAP
0070
0060
00E0
00C0
01C0
01C0
0000
0000
0000
FFFF
FFFF
FFFF
E000
E000
E000
E000
E000
E000
E000
E000
FFFC
FFFC
FFFC
E000
E000
E000
E000
E000
E000
E000
E000
E000
FFFF
FFFF
FFFF
ENDCHAR
STARTCHAR 00CA
ENCODING 202
SWIDTH 581 0
DWIDTH 21 0
BBX 16 34 3 0
BITMAP
03C0
07C0
0EE0
1C70
3838
0000
0000
0000
FFFF
FFFF
FFFF
E000
E000
E000
E000
E000
E000
E000
E000
FFFC
FFFC
FFFC
E000
E000
E000
E000
E000
E000
E000
E000
E000
FFFF
FFFF
FFFF
ENDCHAR
STARTCHAR 00CB
ENCODING 203
SWIDTH 581 0
DWIDTH 21 0
BBX 16 33 3 0
BITMAP
3C78
3C78
3C78
0000
0000
0000
0000
FFFF
FFFF
FFFF
E000
E000
E000
E000
E000
E000
E000
E000
FFFC
FFFC
FFFC
E000
E000
E000
E000
E000
E000
E000
E000
E000
FFFF
FFFF
FFFF
ENDCHAR
STARTCHAR 00CC
ENCODING 204
SWIDTH 249 0
DWIDTH 9 0
BBX 5 35 1 0
BITMAP
E0
E0
60
70
30
38
00
00
00
38
38
38
38
38
38
38
38
38
38
38
38
38
38
38
38
38
38
38
38
38
38
38
38
38
38
ENDCHAR
STARTCHAR 00CD
ENCODING 205
SWIDTH 249 0
DWIDTH 9 0
BBX 5 35 3 0
BITMAP
38
38
30
70
60
E0
00
00
00
E0
E0
E0
E0
E0
E0
E0
E0
E0
E0
E0
E0
E0
E0
E0
E0
E0
E0
E0
E0
E0
E0
E0
E0
E0
E0
ENDCHAR
STARTCHAR 00CE
ENCODING 206
SWIDTH 249 0
DWIDTH 9 0
BBX 11 34 -1 0
BITMAP
1E00
1F00
3B80
71C0
E0E0
0000
0000
0000
0E00
0E00
0E00
0E00
0E00
0E00
0E00
0E00
0E00
0E00
0E00
0E00
0E00
0E00
0E00
0E00
0E00
0E00
0E00
0E00
0E00
0E00
0E00
0E00
0E00
0E00
ENDCHAR
STARTCHAR 00CF
ENCODING 207
SWIDTH 249 0
DWIDTH 9 0
BBX 11 33 -1 0
BITMAP
F1E0
F1E0
F1E0
0000
0000
0000
0000
0E00
0E00
0E00
0E00
0E00
0E00
0E00
0E00
0E00
0E00
0E00
0E00
0E00
0E00
0E00
0E00
0E00
0E00
0E00
0E00
0E00
0E00
0E00
0E00
0E00
0E00
ENDCHAR
STARTCHAR 00D0
ENCODING 208
SWIDTH 664 0
DWIDTH 24 0
BBX 23 26 0 0
BITMAP
3FFE00
3FFFC0
3FFFE0
3C03F0
3C00F8
3C0078
3C003C
3C003C
3C001C
3C001E
3C001E
FFF01E
FFF01E
FFF01E
3C001E
3C001E
3C001C
3C001C
3C003C
3C003C
3C0078
3C00F8
3C03F0
3FFFE0
3FFFC0
3FFE00
ENDCHAR
STARTCHAR 00D1
ENCODING 209
SWIDTH 692 0
DWIDTH 25 0
BBX 20 33 3 0
BITMAP
07C300
0FF700
0E7E00
0C1E00
000000
000000
000000
E000F0
F000F0
F000F0
F800F0
FC00F0
FC00F0
FE00F0
EF00F0
E700F0
E780F0
E3C0F0
E1C0F0
E1E0F0
E0F0F0
E070F0
E078F0
E03CF0
E01CF0
E01EF0
E00FF0
E007F0
E007F0
E003F0
E001F0
E001F0
E000F0
ENDCHAR
STARTCHAR 00D2
ENCODING 210
SWIDTH 720 0
DWIDTH 26 0
BBX 24 34 1 0
BITMAP
006000
007000
007000
003800
003800
001800
000000
000000
00FF00
03FFC0
0FFFF0
1F81F8
1E007C
3C003E
78001E
78000E
70000F
F0000F
F00007
F00007
E00007
E00007
F00007
F00007
F00007
70000F
78000E
78001E
3C003E
1E007C
1F81F8
0FFFF0
03FFE0
00FF00
ENDCHAR
STARTCHAR 00D3
ENCODING 211
SWIDTH 720 0
DWIDTH 26 0
BBX 24 34 1 0
BITMAP
000700
000600
000E00
000E00
000C00
001C00
000000
000000
00FF00
03FFC0
0FFFF0
1F81F8
1E007C
3C003E
78001E
78000E
70000F
F0000F
F00007
F00007
E00007
E00007
F00007
F00007
F00007
70000F
78000E
78001E
3C003E
1E007C
1F81F8
0FFFF0
03FFE0
00FF00
ENDCHAR
STARTCHAR 00D4
ENCODING 212
SWIDTH 720 0
DWIDTH 26 0
BBX 24 34 1 0
BITMAP
003C00
007E00
007700
00E780
01C380
000040
000000
000000
00FF00
03FFC0
0FFFF0
1F81F8
1E007C
3C003E
78001E
78000E
70000F
F0000F
F00007
F00007
E00007
E00007
F00007
F00007
F00007
70000F
78000E
78001E
3C003E
1E007C
1F81F8
0FFFF0
03FFE0
00FF00
ENDCHAR
STARTCHAR 00D5
ENCODING 213
SWIDTH 720 0
DWIDTH 26 0
BBX 24 33 1 0
BITMAP
00F0C0
01F8C0
01FFC0
018FC0
000000
000000
000000
00FF00
03FFC0
0FFFF0
1F81F8
1E007C
3C003E
78001E
78000E
70000F
F0000F
F00007
F00007
E00007
E00007
F00007
F00007
F00007
70000F
78000E
78001E
3C003E
1E007C
1F81F8
0FFFF0
03FFE0
00FF00
ENDCHAR
STARTCHAR 00D6
ENCODING 214
SWIDTH 720 0
DWIDTH 26 0
BBX 24 32 1 0
BITMAP
01C380
01C380
01C380
000000
000000
000000
00FF00
03FFC0
0FFFF0
1F81F8
1E007C
3C003E
78001E
78000E
70000F
F0000F
F00007
F00007
E00007
E00007
F00007
F00007
F00007
70000F
78000E
78001E
3C003E
1E007C
1F81F8
0FFFF0
03FFE0
00FF00
ENDCHAR
STARTCHAR 00D7
ENCODING 215
SWIDTH 498 0
DWIDTH 18 0
BBX 14 13 2 6
BITMAP
2010
7038
7878
3CF0
1FE0
0FC0
0780
0FC0
1FE0
3CF0
7878
F03C
6018
ENDCHAR
STARTCHAR 00D8
ENCODING 216
SWIDTH 720 0
DWIDTH 26 0
BBX 24 26 1 0
BITMAP
00FF02
03FFE7
0FFFFF
1F81FE
1E007C
3C003E
78007E
7800FE
7001EF
F003CF
F00787
F00F07
E01E07
E03C07
F07807
F0F007
F1E007
73C00F
7F800E
7F001E
3E003E
3E007C
7F81F8
FFFFF0
73FFE0
20FF00
ENDCHAR
STARTCHAR 00D9
ENCODING 217
SWIDTH 720 0
DWIDTH 26 0
BBX 20 35 3 0
BITMAP
018000
01C000
01C000
00C000
00E000
006000
000000
000000
000000
E00070
E00070
E00070
E00070
E00070
E00070
E00070
E00070
E00070
E00070
E00070
E00070
E00070
E00070
E00070
E00070
E00070
E00070
E000F0
F000F0
F001E0
7803E0
3E0FC0
1FFF80
0FFF00
03F800
ENDCHAR
STARTCHAR 00DA
ENCODING 218
SWIDTH 720 0
DWIDTH 26 0
BBX 20 35 3 0
BITMAP
003800
003800
003000
007000
006000
00E000
000000
000000
000000
E00070
E00070
E00070
E00070
E00070
E00070
E00070
E00070
E00070
E00070
E00070
E00070
E00070
E00070
E00070
E00070
E00070
E00070
E000F0
F000F0
F001E0
7803E0
3E0FC0
1FFF80
0FFF00
03F800
ENDCHAR
STARTCHAR 00DB
ENCODING 219
SWIDTH 720 0
DWIDTH 26 0
BBX 20 34 3 0
BITMAP
00F000
01F800
03B800
071C00
0E0E00
000000
000000
000000
E00070
E00070
E00070
E00070
E00070
E00070
E00070
E00070
E00070
E00070
E00070
E00070
E00070
E00070
E00070
E00070
E00070
E00070
E000F0
F000F0
F001E0
7803E0
3E0FC0
1FFF80
0FFF00
03F800
ENDCHAR
STARTCHAR 00DC
ENCODING 220
SWIDTH 720 0
DWIDTH 26 0
BBX 20 33 3 0
BITMAP
070E00
070E00
070E00
000000
000000
000000
000000
E00070
E00070
E00070
E00070
E00070
E00070
E00070
E00070
E00070
E00070
E00070
E00070
E00070
E00070
E00070
E00070
E00070
E00070
E000F0
F000F0
F001E0
7803E0
3E0FC0
1FFF80
0FFF00
03F800
ENDCHAR
STARTCHAR 00DD
ENCODING 221
SWIDTH 581 0
DWIDTH 21 0
BBX 20 35 0 0
BITMAP
001C00
001800
003800
003000
007000
007000
000000
000000
000000
F00070
7800F0
7800E0
3C01E0
1C03C0
1E03C0
0E0780
0F0700
078F00
078E00
03DE00
01FC00
01FC00
00F800
00F000
007000
007000
007000
007000
007000
007000
007000
007000
007000
007000
007000
ENDCHAR
STARTCHAR 00DE
ENCODING 222
SWIDTH 609 0
DWIDTH 22 0
BBX 18 26 3 0
BITMAP
E00000
E00000
E00000
E00000
E00000
FFF000
FFFC00
FFFE00
E00F00
E00780
E00380
E003C0
E003C0
E003C0
E003C0
E00380
E00780
E00F00
FFFF00
FFFC00
FFF800
E00000
E00000
E00000
E00000
E00000
ENDCHAR
STARTCHAR 00DF
ENCODING 223
SWIDTH 609 0
DWIDTH 22 0
BBX 18 26 2 0
BITMAP
07E000
1FF800
3FFC00
7C3E00
781E00
700F00
700F00
F00F00
F00E00
F01E00
F03E00
F0F800
F0FE00
F0FF00
F00F80
F00780
F003C0
F003C0
F001C0
F003C0
F003C0
F00780
F20F80
F3FF00
F3FE00
F3F800
ENDCHAR
STARTCHAR 00E0
ENCODING 224
SWIDTH 553 0
DWIDTH 20 0
BBX 17 28 1 0
BITMAP
038000
038000
018000
01C000
00C000
00E000
000000
000000
03F800
0FFE00
1FFF00
3E0F00
780780
300380
000380
000F80
03FF80
1FFF80
3FC380
7C0380
700380
F00780
F00780
700F80
781F80
7FFB80
3FF380
0FC000
ENDCHAR
STARTCHAR 00E1
ENCODING 225
SWIDTH 553 0
DWIDTH 20 0
BBX 17 28 1 0
BITMAP
003800
003000
007000
007000
006000
00E000
000000
000000
03F800
0FFE00
1FFF00
3E0F00
780780
300380
000380
000F80
03FF80
1FFF80
3FC380
7C0380
700380
F00780
F00780
700F80
781F80
7FFB80
3FF380
0FC000
ENDCHAR
STARTCHAR 00E2
ENCODING 226
SWIDTH 553 0
DWIDTH 20 0
BBX 17 28 1 0
BITMAP
00E000
01F000
03B800
071C00
0E0E00
000000
000000
000000
03F800
0FFE00
1FFF00
3E0F00
780780
300380
000380
000F80
03FF80
1FFF80
3FC380
7C0380
700380
F00780
F00780
700F80
781F80
7FFB80
3FF380
0FC000
ENDCHAR
STARTCHAR 00E3
ENCODING 227
SWIDTH 553 0
DWIDTH 20 0
BBX 17 27 1 0
BITMAP
078600
0FE600
0FFE00
0C3E00
000000
000000
000000
03F800
0FFE00
1FFF00
3E0F00
780780
300380
000380
000F80
03FF80
1FFF80
3FC380
7C0380
700380
F00780
F00780
700F80
781F80
7FFB80
3FF380
0FC000
ENDCHAR
STARTCHAR 00E4
ENCODING 228
SWIDTH 553 0
DWIDTH 20 0
BBX 17 26 1 0
BITMAP
0F1E00
0F1E00
0F1E00
000000
000000
000000
03F800
0FFE00
1FFF00
3E0F00
780780
300380
000380
000F80
03FF80
1FFF80
3FC380
7C0380
700380
F00780
F00780
700F80
781F80
7FFB80
3FF380
0FC000
ENDCHAR
STARTCHAR 00E5
ENCODING 229
SWIDTH 553 0
DWIDTH 20 0
BBX 17 30 1 0
BITMAP
01E000
03F800
033800
071C00
061C00
071800
03F800
01F000
000000
000000
03F800
0FFE00
1FFF00
3E0F00
780780
300380
000380
000F80
03FF80
1FFF80
3FC380
7C0380
700380
F00780
F00780
700F80
781F80
7FFB80
3FF380
0FC000
ENDCHAR
STARTCHAR 00E6
ENCODING 230
SWIDTH 941 0
DWIDTH 34 0
BBX 31 20 1 0
BITMAP
03F80FC0
0FFC3FF0
1FFF7FF8
3E0FF03C
7807E01C
3007C00E
0003C00E
0003C00E
0003FFFE
07FFFFFE
3FFFFFFE
7E038000
7003C000
F003C000
F007C00C
F00FE01E
781EF87C
7FFC7FF8
3FF83FF0
0FE00FC0
ENDCHAR
STARTCHAR 00E7
ENCODING 231
SWIDTH 553 0
DWIDTH 20 0
BBX 18 28 1 -8
BITMAP
03F800
0FFE00
1FFF00
3E0F80
3C03C0
7803C0
780000
700000
700000
F00000
F00000
F00000
700000
700000
7803C0
3C03C0
3E0F80
1FFF00
0FFE00
03F800
00E000
00C000
00F000
007000
003000
003000
01F000
01E000
ENDCHAR
STARTCHAR 00E8
ENCODING 232
SWIDTH 581 0
DWIDTH 21 0
BBX 19 28 1 0
BITMAP
018000
01C000
01C000
00E000
00E000
006000
000000
000000
01F800
0FFE00
1FFF00
3E0780
3C03C0
7801C0
7001C0
7001E0
7FFFE0
FFFFE0
FFFFE0
F00000
700000
700000
7801C0
3C03C0
3E0F80
1FFF80
07FE00
01F800
ENDCHAR
STARTCHAR 00E9
ENCODING 233
SWIDTH 581 0
DWIDTH 21 0
BBX 19 28 1 0
BITMAP
001C00
001800
003800
003000
007000
007000
000000
000000
01F800
0FFE00
1FFF00
3E0780
3C03C0
7801C0
7001C0
7001E0
7FFFE0
FFFFE0
FFFFE0
F00000
700000
700000
7801C0
3C03C0
3E0F80
1FFF80
07FE00
01F800
ENDCHAR
STARTCHAR 00EA
ENCODING 234
SWIDTH 581 0
DWIDTH 21 0
BBX 19 28 1 0
BITMAP
00F000
01F800
03B800
079C00
0F0E00
000000
000000
000000
01F800
0FFE00
1FFF00
3E0780
3C03C0
7801C0
7001C0
7001E0
7FFFE0
FFFFE0
FFFFE0
F00000
700000
700000
7801C0
3C03C0
3E0F80
1FFF80
07FE00
01F800
ENDCHAR
STARTCHAR 00EB
ENCODING 235
SWIDTH 581 0
DWIDTH 21 0
BBX 19 26 1 0
BITMAP
070E00
070E00
070E00
000000
000000
000000
01F800
0FFE00
1FFF00
3E0780
3C03C0
7801C0
7001C0
7001E0
7FFFE0
FFFFE0
FFFFE0
F00000
700000
700000
7801C0
3C03C0
3E0F80
1FFF80
07FE00
01F800
ENDCHAR
STARTCHAR 00EC
ENCODING 236
SWIDTH 249 0
DWIDTH 9 0
BBX 5 29 1 0
BITMAP
E0
E0
60
70
30
38
00
00
00
38
38
38
38
38
38
38
38
38
38
38
38
38
38
38
38
38
38
38
38
ENDCHAR
STARTCHAR 00ED
ENCODING 237
SWIDTH 249 0
DWIDTH 9 0
BBX 5 29 3 0
BITMAP
38
38
30
70
60
E0
00
00
00
E0
E0
E0
E0
E0
E0
E0
E0
E0
E0
E0
E0
E0
E0
E0
E0
E0
E0
E0
E0
ENDCHAR
STARTCHAR 00EE
ENCODING 238
SWIDTH 249 0
DWIDTH 9 0
BBX 11 28 -1 0
BITMAP
0F00
1F00
3B80
71C0
E0E0
0000
0000
0000
0E00
0E00
0E00
0E00
0E00
0E00
0E00
0E00
0E00
0E00
0E00
0E00
0E00
0E00
0E00
0E00
0E00
0E00
0E00
0E00
ENDCHAR
STARTCHAR 00EF
ENCODING 239
SWIDTH 249 0
DWIDTH 9 0
BBX 11 26 -1 0
BITMAP
F1E0
F1E0
F1E0
0000
0000
0000
0E00
0E00
0E00
0E00
0E00
0E00
0E00
0E00
0E00
0E00
0E00
0E00
0E00
0E00
0E00
0E00
0E00
0E00
0E00
0E00
ENDCHAR
STARTCHAR 00F0
ENCODING 240
SWIDTH 581 0
DWIDTH 21 0
BBX 19 29 1 0
BITMAP
000400
010600
01FE00
01FC00
007E00
007F00
007700
006780
000380
0001C0
03F9C0
0FFDC0
1FFFC0
3E0FC0
3803E0
7803E0
7001E0
7001E0
F001E0
F001E0
F001E0
7001E0
7001C0
7803C0
3803C0
3E0F80
1FFF00
0FFE00
03F800
ENDCHAR
STARTCHAR 00F1
ENCODING 241
SWIDTH 609 0
DWIDTH 22 0
BBX 18 27 2 0
BITMAP
0F0E00
1FCE00
1DFE00
187C00
000000
000000
000000
E1F800
E7FE00
EFFF00
FE1F00
F80780
F80780
F00380
F003C0
F003C0
F003C0
F003C0
F003C0
F003C0
F003C0
F003C0
F003C0
F003C0
F003C0
F003C0
F003C0
ENDCHAR
STARTCHAR 00F2
ENCODING 242
SWIDTH 609 0
DWIDTH 22 0
BBX 19 28 1 0
BITMAP
038000
018000
01C000
00C000
00E000
00E000
000000
000000
01F800
0FFE00
1FFF00
3E0F80
3C03C0
7801C0
7001E0
7000E0
F000E0
F000E0
F000E0
F000E0
7000E0
7001E0
7801C0
3C03C0
3E0F80
1FFF00
07FE00
03F800
ENDCHAR
STARTCHAR 00F3
ENCODING 243
SWIDTH 609 0
DWIDTH 22 0
BBX 19 28 1 0
BITMAP
001800
003800
003000
007000
007000
006000
000000
000000
01F800
0FFE00
1FFF00
3E0F80
3C03C0
7801C0
7001E0
7000E0
F000E0
F000E0
F000E0
F000E0
7000E0
7001E0
7801C0
3C03C0
3E0F80
1FFF00
07FE00
03F800
ENDCHAR
STARTCHAR 00F4
ENCODING 244
SWIDTH 609 0
DWIDTH 22 0
BBX 19 28 1 0
BITMAP
00F000
01F800
03B800
079C00
070E00
080000
000000
000000
01F800
0FFE00
1FFF00
3E0F80
3C03C0
7801C0
7001E0
7000E0
F000E0
F000E0
F000E0
F000E0
7000E0
7001E0
7801C0
3C03C0
3E0F80
1FFF00
07FE00
03F800
ENDCHAR
STARTCHAR 00F5
ENCODING 245
SWIDTH 609 0
DWIDTH 22 0
BBX 19 27 1 0
BITMAP
078700
0FE700
0EFE00
0C3E00
000000
000000
000000
01F800
0FFE00
1FFF00
3E0F80
3C03C0
7801C0
7001E0
7000E0
F000E0
F000E0
F000E0
F000E0
7000E0
7001E0
7801C0
3C03C0
3E0F80
1FFF00
07FE00
03F800
ENDCHAR
STARTCHAR 00F6
ENCODING 246
SWIDTH 609 0
DWIDTH 22 0
BBX 19 26 1 0
BITMAP
070E00
070E00
070E00
000000
000000
000000
01F800
0FFE00
1FFF00
3E0F80
3C03C0
7801C0
7001E0
7000E0
F000E0
F000E0
F000E0
F000E0
7000E0
7001E0
7801C0
3C03C0
3E0F80
1FFF00
07FE00
03F800
ENDCHAR
STARTCHAR 00F7
ENCODING 247
SWIDTH 553 0
DWIDTH 20 0
BBX 15 14 2 6
BITMAP
0380
0380
0380
0000
0000
FFFE
FFFE
FFFE
0000
0000
0000
0380
0380
0380
ENDCHAR
STARTCHAR 00F8
ENCODING 248
SWIDTH 609 0
DWIDTH 22 0
BBX 20 20 1 0
BITMAP
01F840
0FFEE0
1FFFF0
3E0FC0
3C03C0
7807C0
700FE0
701CE0
F038E0
F070E0
F1E0E0
F3C0E0
7780E0
7F01E0
7E01C0
3C03C0
7E0F80
FFFF00
7FFE00
41F800
ENDCHAR
STARTCHAR 00F9
ENCODING 249
SWIDTH 609 0
DWIDTH 22 0
BBX 17 29 2 0
BITMAP
070000
030000
038000
018000
01C000
01C000
000000
000000
000000
E00380
E00380
E00380
E00380
E00380
E00380
E00380
E00380
E00380
E00380
E00380
E00380
F00380
F00380
700780
780F80
7E1F80
3FFF80
1FFB80
07E380
ENDCHAR
STARTCHAR 00FA
ENCODING 250
SWIDTH 609 0
DWIDTH 22 0
BBX 17 29 2 0
BITMAP
007000
007000
006000
00E000
00E000
01C000
000000
000000
000000
E00380
E00380
E00380
E00380
E00380
E00380
E00380
E00380
E00380
E00380
E00380
E00380
F00380
F00380
700780
780F80
7E1F80
3FFF80
1FFB80
07E380
ENDCHAR
STARTCHAR 00FB
ENCODING 251
SWIDTH 609 0
DWIDTH 22 0
BBX 17 28 2 0
BITMAP
01E000
03F000
077000
0E3800
1C1C00
000000
000000
000000
E00380
E00380
E00380
E00380
E00380
E00380
E00380
E00380
E00380
E00380
E00380
E00380
F00380
F00380
700780
780F80
7E1F80
3FFF80
1FFB80
07E380
ENDCHAR
STARTCHAR 00FC
ENCODING 252
SWIDTH 609 0
DWIDTH 22 0
BBX 17 26 2 0
BITMAP
0E1C00
0E1C00
0E1C00
000000
000000
000000
E00380
E00380
E00380
E00380
E00380
E00380
E00380
E00380
E00380
E00380
E00380
E00380
F00380
F00380
700780
780F80
7E1F80
3FFF80
1FFB80
07E380
ENDCHAR
STARTCHAR 00FD
ENCODING 253
SWIDTH 526 0
DWIDTH 19 0
BBX 18 37 1 -8
BITMAP
003000
007000
006000
00E000
00E000
00C000
000000
000000
000000
E001C0
F00380
700380
700780
780700
380700
3C0F00
1C0E00
1C0E00
1E1C00
0E1C00
0E3C00
073800
073800
07F800
03F000
03F000
01E000
01E000
01E000
01C000
01C000
038000
038000
038000
070000
070000
0F0000
ENDCHAR
STARTCHAR 00FE
ENCODING 254
SWIDTH 609 0
DWIDTH 22 0
BBX 18 34 2 -8
BITMAP
700000
700000
700000
700000
700000
700000
71F000
F7FC00
FFFF00
FC0F00
F80780
F00380
F003C0
F003C0
E001C0
E001C0
E001C0
E001C0
F003C0
F003C0
F00380
F80780
FC0F00
FFFF00
F7FC00
F1F800
F00000
F00000
F00000
F00000
F00000
F00000
F00000
F00000
ENDCHAR
STARTCHAR 00FF
ENCODING 255
SWIDTH 526 0
DWIDTH 19 0
BBX 18 34 1 -8
BITMAP
0E1C00
0E1C00
0E1C00
000000
000000
000000
E001C0
F00380
700380
700780
780700
380700
3C0F00
1C0E00
1C0E00
1E1C00
0E1C00
0E3C00
073800
073800
07F800
03F000
03F000
01E000
01E000
01E000
01C000
01C000
038000
038000
038000
070000
070000
0F0000
ENDCHAR
ENDFONT
